<svg xmlns="http://www.w3.org/2000/svg" viewBox="0 0 100 100" width="100" height="100">
  <!-- Blue background square -->
  <rect width="100" height="100" fill="#2563eb" rx="8"/>
  
  <!-- White wrench (left tool) -->
  <g transform="translate(50, 50)">
    <!-- Wrench head and handle -->
    <path d="M -20,-15 L -15,-20 L -10,-15 L -8,-17 L -12,-21 L -10,-23 L -6,-19 L -3,-22 L -7,-26 L -2,-31 C 0,-33 2,-33 4,-31 C 6,-29 6,-27 4,-25 L -1,-20 L -5,-24 L -8,-21 L -4,-17 L -6,-15 L -10,-19 L -15,-14 L -20,-15 Z" fill="white"/>
  </g>
  
  <!-- White screwdriver (right tool) -->
  <g transform="translate(50, 50)">
    <!-- Screwdriver tip -->
    <path d="M 10,5 L 15,0 L 17,2 L 20,-1 L 22,-3 L 24,-1 L 22,1 L 19,4 L 21,6 L 16,11 L 10,5 Z" fill="white"/>
    <!-- Screwdriver handle -->
    <path d="M 9,6 L 3,12 L 0,15 L -3,18 C -4,19 -5,19 -6,18 C -7,17 -7,16 -6,15 L -3,12 L 0,9 L 6,3 L 9,6 Z" fill="white"/>
  </g>
</svg>